# xmcd CD database file
#
# Track frame offsets:
#	150
#	14182
#	29725
#	48780
#	71865
#	94500
#	109300
#	128862
#	149107
#	174192
#	192877
#	214757
#
# Disc length: 3070 seconds
#
# Revision: 0
# Processed by: cddbd v1.5.1PL0 Copyright (c) Steve Scherf et al.
# Submitted via: CDex 1.51
#
DISCID=b70bfc0c
DTITLE=Try Tone - warm tones
DYEAR=1900
DGENRE=Jazz
TTITLE0=Last Regret
TTITLE1=REASON
TTITLE2=初めて出会った日のように
TTITLE3=最初から今まで
TTITLE4=I Believe
TTITLE5=愛の挨拶
TTITLE6=MOMENT
TTITLE7=大丈夫よ　私は
TTITLE8=My Memory[Bossa Nova]
TTITLE9=愛の群像
TTITLE10=秘密
TTITLE11=初恋
EXTD=
EXTT0=
EXTT1=
EXTT2=
EXTT3=
EXTT4=
EXTT5=
EXTT6=
EXTT7=
EXTT8=
EXTT9=
EXTT10=
EXTT11=
PLAYORDER=
